<?xml version="1.0" encoding="UTF-8"?>
<!DOCTYPE svg PUBLIC "-//W3C//DTD SVG 1.1//EN" "http://www.w3.org/Graphics/SVG/1.1/DTD/svg11.dtd">
<svg xmlns="http://www.w3.org/2000/svg" version="1.1" width="392px" height="259px" style="shape-rendering:geometricPrecision; text-rendering:geometricPrecision; image-rendering:optimizeQuality; fill-rule:evenodd; clip-rule:evenodd" xmlns:xlink="http://www.w3.org/1999/xlink">
<g><path style="opacity:1" fill="#0c0c19" d="M 0.5,-0.5 C 130.833,-0.5 261.167,-0.5 391.5,-0.5C 391.5,85.5 391.5,171.5 391.5,257.5C 261.167,257.5 130.833,257.5 0.5,257.5C 0.5,171.5 0.5,85.5 0.5,-0.5 Z"/></g>
<g><path style="opacity:1" fill="#0c0e19" d="M 268.5,35.5 C 262.5,34.8333 256.5,34.1667 250.5,33.5C 250.5,42.8333 250.5,52.1667 250.5,61.5C 254.042,61.1872 257.375,61.5206 260.5,62.5C 259.078,62.7086 257.745,63.2086 256.5,64C 258.608,64.3599 260.608,65.0266 262.5,66C 262.043,66.414 261.709,66.914 261.5,67.5C 256.761,68.4111 252.261,69.0778 248,69.5C 247.797,71.3908 248.297,73.0575 249.5,74.5C 248.712,82.8088 248.379,91.1422 248.5,99.5C 256.833,99.5 265.167,99.5 273.5,99.5C 273.5,90.1667 273.5,80.8333 273.5,71.5C 273.56,70.9569 273.893,70.6236 274.5,70.5C 275.833,71.1667 277.167,71.8333 278.5,72.5C 279.434,77.8981 280.767,83.0648 282.5,88C 280.655,89.128 278.655,89.628 276.5,89.5C 276.616,92.8599 276.949,96.1933 277.5,99.5C 276.5,99.5 275.5,99.5 274.5,99.5C 274.5,100.5 274.5,101.5 274.5,102.5C 276.167,102.5 277.833,102.5 279.5,102.5C 277.836,96.1097 280.169,93.1097 286.5,93.5C 286.5,94.8333 286.5,96.1667 286.5,97.5C 287.833,97.5 289.167,97.5 290.5,97.5C 290.5,96.1667 290.5,94.8333 290.5,93.5C 292.492,93.6715 294.158,93.0049 295.5,91.5C 296.318,94.1071 296.818,96.7737 297,99.5C 297.556,97.4049 298.056,97.2382 298.5,99C 297.728,100.221 296.728,101.221 295.5,102C 296.624,102.249 297.624,102.749 298.5,103.5C 293.975,105.022 289.308,106.022 284.5,106.5C 281.579,105.593 278.579,105.26 275.5,105.5C 275.5,106.833 275.5,108.167 275.5,109.5C 276.873,109.343 278.207,109.51 279.5,110C 277.881,118.776 276.215,127.776 274.5,137C 277.188,137.548 279.355,136.715 281,134.5C 284.594,135.327 288.261,135.993 292,136.5C 293.326,136.245 294.326,135.578 295,134.5C 295.17,136.845 294.837,139.179 294,141.5C 293.51,140.207 293.343,138.873 293.5,137.5C 290.05,136.756 288.384,138.09 288.5,141.5C 283.156,141.334 277.823,141.501 272.5,142C 274.698,143.67 275.032,145.67 273.5,148C 276.726,149.199 280.059,149.699 283.5,149.5C 283.5,150.833 283.5,152.167 283.5,153.5C 282.5,153.5 281.5,153.5 280.5,153.5C 280.5,154.833 280.5,156.167 280.5,157.5C 277.784,157.678 275.117,158.178 272.5,159C 274.283,160.067 274.783,161.567 274,163.5C 273.764,161.881 272.931,160.881 271.5,160.5C 271.5,154.833 271.5,149.167 271.5,143.5C 263.158,144.427 254.825,145.427 246.5,146.5C 245.768,155.815 245.434,165.148 245.5,174.5C 254.189,173.33 262.856,171.997 271.5,170.5C 273.104,171.287 273.771,172.62 273.5,174.5C 272.325,174.281 271.325,174.614 270.5,175.5C 271,175.833 271.5,176.167 272,176.5C 274.578,174.981 277.411,174.148 280.5,174C 278.679,171.544 278.012,168.711 278.5,165.5C 281.167,165.5 283.833,165.5 286.5,165.5C 286.5,166.833 286.5,168.167 286.5,169.5C 289.167,169.5 291.833,169.5 294.5,169.5C 295.799,165.63 296.466,161.63 296.5,157.5C 299.167,157.5 301.833,157.5 304.5,157.5C 304.5,160.167 304.5,162.833 304.5,165.5C 307.079,165.917 309.246,165.25 311,163.5C 310.773,165.574 310.939,167.574 311.5,169.5C 310.349,170.731 309.183,170.731 308,169.5C 306.653,173.375 305.486,173.375 304.5,169.5C 301.668,169.427 299.334,170.761 297.5,173.5C 291.756,175.523 285.756,177.023 279.5,178C 278.549,181.057 278.216,184.223 278.5,187.5C 277.778,187.082 277.278,186.416 277,185.5C 276.833,186 276.667,186.5 276.5,187C 276.257,191.046 276.59,195.213 277.5,199.5C 276.53,201.483 275.53,203.483 274.5,205.5C 273.719,204.271 273.219,202.938 273,201.5C 272.667,203.167 272.333,204.833 272,206.5C 271.5,206 271,205.5 270.5,205C 272.121,200.984 272.621,196.817 272,192.5C 271.667,193.833 271.333,195.167 271,196.5C 270.517,195.552 270.351,194.552 270.5,193.5C 270.827,188.786 270.493,184.12 269.5,179.5C 268.893,179.624 268.56,179.957 268.5,180.5C 260.392,181.761 252.392,183.428 244.5,185.5C 243.542,185.953 242.708,186.619 242,187.5C 241.814,189.9 241.314,192.234 240.5,194.5C 239.604,193.494 238.938,193.494 238.5,194.5C 239.183,197.461 240.016,197.795 241,195.5C 241.684,198.38 241.517,201.213 240.5,204C 240.903,205.473 241.57,206.806 242.5,208C 241.773,209.399 241.273,210.899 241,212.5C 239.796,211.529 239.296,210.529 239.5,209.5C 239.167,210.167 238.833,210.833 238.5,211.5C 239.139,214.475 239.639,217.475 240,220.5C 240.715,216.061 242.882,214.894 246.5,217C 244.071,218.355 242.738,220.022 242.5,222C 239.5,222.667 236.5,222.667 233.5,222C 232.252,220.6 231.252,219.1 230.5,217.5C 231.5,217.5 232.5,217.5 233.5,217.5C 234.424,207.539 234.758,197.539 234.5,187.5C 225.784,188.952 217.118,190.619 208.5,192.5C 207.739,191.609 206.739,190.942 205.5,190.5C 204.847,194.635 203.513,198.469 201.5,202C 202.344,203.92 203.01,206.253 203.5,209C 203.387,214.56 202.887,214.727 202,209.5C 201.667,211.167 201.333,212.833 201,214.5C 199.775,210.964 197.275,208.964 193.5,208.5C 191.175,203.74 191.508,199.073 194.5,194.5C 194.376,193.893 194.043,193.56 193.5,193.5C 209.211,139.381 224.878,85.3813 240.5,31.5C 237.833,31.1667 235.167,30.8333 232.5,30.5C 232.369,29.6236 232.702,28.9569 233.5,28.5C 235.167,29.8333 236.833,29.8333 238.5,28.5C 239.5,29.1667 240.5,29.8333 241.5,30.5C 241.833,29.8333 242.167,29.1667 242.5,28.5C 243.541,30.9913 244.374,30.9913 245,28.5C 245.519,29.5156 246.353,30.1822 247.5,30.5C 251.653,29.1275 255.986,28.6275 260.5,29C 259.007,30.1562 259.174,30.9896 261,31.5C 264.902,32.6009 268.736,32.2675 272.5,30.5C 274.389,30.4363 276.056,30.9363 277.5,32C 273.995,32.1191 270.995,33.2857 268.5,35.5 Z"/></g>
<g><path style="opacity:1" fill="#33d6dc" d="M 284.5,38.5 C 290.883,39.2213 297.216,40.2213 303.5,41.5C 303.5,49.5 303.5,57.5 303.5,65.5C 296.496,65.2269 289.496,64.8936 282.5,64.5C 281.864,55.4355 282.53,46.7688 284.5,38.5 Z"/></g>
<g><path style="opacity:1" fill="#0b1119" d="M 155.5,91.5 C 155.666,83.8261 155.5,76.1594 155,68.5C 142.555,75.971 130.055,83.3043 117.5,90.5C 116.278,86.538 117.945,84.8713 122.5,85.5C 122.67,84.1779 122.337,83.0113 121.5,82C 123.804,81.1048 126.138,80.2715 128.5,79.5C 126.4,78.7613 124.067,78.7613 121.5,79.5C 120.513,76.2317 120.18,72.8984 120.5,69.5C 123.167,69.5 125.833,69.5 128.5,69.5C 128.5,66.8333 128.5,64.1667 128.5,61.5C 141.833,61.5 155.167,61.5 168.5,61.5C 168.5,57.5 168.5,53.5 168.5,49.5C 170.833,49.5 173.167,49.5 175.5,49.5C 175.5,48.1667 175.5,46.8333 175.5,45.5C 178.5,45.5 181.5,45.5 184.5,45.5C 185.825,52.1697 183.158,54.8363 176.5,53.5C 176.5,58.8333 176.5,64.1667 176.5,69.5C 173.833,69.5 171.167,69.5 168.5,69.5C 168.5,72.1667 168.5,74.8333 168.5,77.5C 165.167,77.5 161.833,77.5 158.5,77.5C 158.36,75.8762 159.027,74.7096 160.5,74C 159.056,73.2195 157.723,73.3861 156.5,74.5C 157.131,78.0344 157.798,81.5344 158.5,85C 157.008,86.9912 156.008,89.1578 155.5,91.5 Z"/></g>
<g><path style="opacity:1" fill="#35d4db" d="M 268.5,35.5 C 270.379,36.3414 272.379,36.6747 274.5,36.5C 274.5,45.5 274.5,54.5 274.5,63.5C 269.848,63.0019 265.181,62.6686 260.5,62.5C 257.375,61.5206 254.042,61.1872 250.5,61.5C 250.5,52.1667 250.5,42.8333 250.5,33.5C 256.5,34.1667 262.5,34.8333 268.5,35.5 Z"/></g>
<g><path style="opacity:1" fill="#33d7de" d="M 311.5,42.5 C 317.517,43.2368 323.517,44.2368 329.5,45.5C 329.5,52.8333 329.5,60.1667 329.5,67.5C 324.482,67.3867 319.482,67.0534 314.5,66.5C 313.791,65.596 312.791,65.2627 311.5,65.5C 311.5,57.8333 311.5,50.1667 311.5,42.5 Z"/></g>
<g><path style="opacity:1" fill="#35828c" d="M 311.5,42.5 C 311.5,50.1667 311.5,57.8333 311.5,65.5C 312.791,65.2627 313.791,65.596 314.5,66.5C 313.167,66.5 311.833,66.5 310.5,66.5C 310.174,58.3159 310.508,50.3159 311.5,42.5 Z"/></g>
<g><path style="opacity:1" fill="#0c1119" d="M 284.5,38.5 C 282.53,46.7688 281.864,55.4355 282.5,64.5C 289.496,64.8936 296.496,65.2269 303.5,65.5C 303.5,57.5 303.5,49.5 303.5,41.5C 304.222,41.0825 304.722,40.4158 305,39.5C 305.315,42.3715 305.815,45.2048 306.5,48C 305.679,51.5902 306.179,55.0902 308,58.5C 308.333,58.1667 308.667,57.8333 309,57.5C 309.784,60.7603 309.617,63.9269 308.5,67C 309.167,68 309.833,69 310.5,70C 309.022,71.1931 307.688,71.6931 306.5,71.5C 308.631,72.1687 310.631,72.8354 312.5,73.5C 311.5,73.5 310.5,73.5 309.5,73.5C 309.5,74.8333 309.5,76.1667 309.5,77.5C 308.788,76.2613 307.788,75.7613 306.5,76C 305.892,78.1841 306.559,80.1841 308.5,82C 307.167,85 307.167,88 308.5,91C 307.072,92.9162 306.072,95.0829 305.5,97.5C 304.808,96.9747 304.308,96.3081 304,95.5C 302.706,96.8544 302.54,98.1877 303.5,99.5C 302.092,100.243 300.759,101.077 299.5,102C 304.98,103.999 310.646,105.166 316.5,105.5C 314.735,106.461 312.735,106.795 310.5,106.5C 310.5,114.5 310.5,122.5 310.5,130.5C 316.803,129.573 323.137,128.906 329.5,128.5C 329.5,120.833 329.5,113.167 329.5,105.5C 325.5,105.5 321.5,105.5 317.5,105.5C 317.351,104.448 317.517,103.448 318,102.5C 318.956,103.894 320.289,104.561 322,104.5C 325.018,103.495 327.851,102.161 330.5,100.5C 333.133,101.782 333.133,103.116 330.5,104.5C 331.325,105.386 332.325,105.719 333.5,105.5C 333.034,97.1168 332.7,88.6168 332.5,80C 332.944,78.2382 333.444,78.4049 334,80.5C 334.958,78.8008 335.458,76.9674 335.5,75C 334.024,71.6022 333.524,68.1022 334,64.5C 334.17,66.7148 334.837,68.7148 336,70.5C 338.719,69.5562 341.552,69.2229 344.5,69.5C 344.5,70.8333 344.5,72.1667 344.5,73.5C 347.167,73.5 349.833,73.5 352.5,73.5C 352.5,74.8333 352.5,76.1667 352.5,77.5C 353.833,77.5 355.167,77.5 356.5,77.5C 356.5,79.8333 356.5,82.1667 356.5,84.5C 352.466,84.5045 348.466,84.8379 344.5,85.5C 344.5,90.8333 344.5,96.1667 344.5,101.5C 348.5,101.5 352.5,101.5 356.5,101.5C 356.5,104.167 356.5,106.833 356.5,109.5C 360.5,109.5 364.5,109.5 368.5,109.5C 368.5,112.167 368.5,114.833 368.5,117.5C 371.167,117.5 373.833,117.5 376.5,117.5C 376.5,122.833 376.5,128.167 376.5,133.5C 373.833,133.5 371.167,133.5 368.5,133.5C 368.5,130.833 368.5,128.167 368.5,125.5C 364.5,125.5 360.5,125.5 356.5,125.5C 356.5,124.167 356.5,122.833 356.5,121.5C 355.167,121.5 353.833,121.5 352.5,121.5C 352.5,120.167 352.5,118.833 352.5,117.5C 351.167,117.5 349.833,117.5 348.5,117.5C 348.5,116.167 348.5,114.833 348.5,113.5C 347.167,113.5 345.833,113.5 344.5,113.5C 344.5,112.167 344.5,110.833 344.5,109.5C 340.713,109.78 337.047,109.78 333.5,109.5C 332.809,114.383 332.143,119.216 331.5,124C 331.833,124.167 332.167,124.333 332.5,124.5C 333.474,122.257 333.808,119.924 333.5,117.5C 334.5,117.5 335.5,117.5 336.5,117.5C 336.568,124.769 336.068,131.769 335,138.5C 334.667,138.833 334.333,139.167 334,139.5C 333.798,137.744 333.298,136.078 332.5,134.5C 329.956,135.735 329.956,136.901 332.5,138C 331.816,144.802 331.149,151.636 330.5,158.5C 330.846,159.696 331.346,159.696 332,158.5C 332.173,154.459 332.673,150.459 333.5,146.5C 334.239,151.558 334.572,156.558 334.5,161.5C 336.003,157.645 336.67,153.645 336.5,149.5C 339.167,149.5 341.833,149.5 344.5,149.5C 344.5,162.833 344.5,176.167 344.5,189.5C 341.212,189.073 338.212,189.74 335.5,191.5C 334.261,189.993 334.595,188.826 336.5,188C 334.481,188.152 332.481,188.652 330.5,189.5C 330.768,187.901 330.434,186.568 329.5,185.5C 329.666,179.491 329.499,173.491 329,167.5C 322.355,168.952 315.855,170.619 309.5,172.5C 308.532,174.607 308.198,176.941 308.5,179.5C 306.876,179.36 305.71,180.027 305,181.5C 304.667,179.167 304.333,176.833 304,174.5C 303.308,175.025 302.808,175.692 302.5,176.5C 303.059,179.958 304.059,183.291 305.5,186.5C 303.668,190.286 303.335,194.12 304.5,198C 303.054,199.298 301.721,199.465 300.5,198.5C 301.493,190.35 301.826,182.017 301.5,173.5C 300.167,173.5 298.833,173.5 297.5,173.5C 299.334,170.761 301.668,169.427 304.5,169.5C 305.486,173.375 306.653,173.375 308,169.5C 309.183,170.731 310.349,170.731 311.5,169.5C 310.939,167.574 310.773,165.574 311,163.5C 309.246,165.25 307.079,165.917 304.5,165.5C 304.5,162.833 304.5,160.167 304.5,157.5C 301.833,157.5 299.167,157.5 296.5,157.5C 296.466,161.63 295.799,165.63 294.5,169.5C 291.833,169.5 289.167,169.5 286.5,169.5C 286.5,168.167 286.5,166.833 286.5,165.5C 283.833,165.5 281.167,165.5 278.5,165.5C 278.012,168.711 278.679,171.544 280.5,174C 277.411,174.148 274.578,174.981 272,176.5C 271.5,176.167 271,175.833 270.5,175.5C 271.325,174.614 272.325,174.281 273.5,174.5C 273.771,172.62 273.104,171.287 271.5,170.5C 271.5,167.167 271.5,163.833 271.5,160.5C 272.931,160.881 273.764,161.881 274,163.5C 274.783,161.567 274.283,160.067 272.5,159C 275.117,158.178 277.784,157.678 280.5,157.5C 280.5,156.167 280.5,154.833 280.5,153.5C 281.5,153.5 282.5,153.5 283.5,153.5C 283.5,152.167 283.5,150.833 283.5,149.5C 280.059,149.699 276.726,149.199 273.5,148C 275.032,145.67 274.698,143.67 272.5,142C 277.823,141.501 283.156,141.334 288.5,141.5C 288.384,138.09 290.05,136.756 293.5,137.5C 293.343,138.873 293.51,140.207 294,141.5C 294.837,139.179 295.17,136.845 295,134.5C 294.326,135.578 293.326,136.245 292,136.5C 288.261,135.993 284.594,135.327 281,134.5C 279.355,136.715 277.188,137.548 274.5,137C 276.215,127.776 277.881,118.776 279.5,110C 278.207,109.51 276.873,109.343 275.5,109.5C 275.5,108.167 275.5,106.833 275.5,105.5C 278.579,105.26 281.579,105.593 284.5,106.5C 289.308,106.022 293.975,105.022 298.5,103.5C 297.624,102.749 296.624,102.249 295.5,102C 296.728,101.221 297.728,100.221 298.5,99C 298.056,97.2382 297.556,97.4049 297,99.5C 296.818,96.7737 296.318,94.1071 295.5,91.5C 294.158,93.0049 292.492,93.6715 290.5,93.5C 290.5,94.8333 290.5,96.1667 290.5,97.5C 289.167,97.5 287.833,97.5 286.5,97.5C 286.5,96.1667 286.5,94.8333 286.5,93.5C 280.169,93.1097 277.836,96.1097 279.5,102.5C 277.833,102.5 276.167,102.5 274.5,102.5C 274.5,101.5 274.5,100.5 274.5,99.5C 275.5,99.5 276.5,99.5 277.5,99.5C 276.949,96.1933 276.616,92.8599 276.5,89.5C 278.655,89.628 280.655,89.128 282.5,88C 280.767,83.0648 279.434,77.8981 278.5,72.5C 277.167,71.8333 275.833,71.1667 274.5,70.5C 273.893,70.6236 273.56,70.9569 273.5,71.5C 265.479,71.5575 257.479,71.2242 249.5,70.5C 249.5,71.8333 249.5,73.1667 249.5,74.5C 248.297,73.0575 247.797,71.3908 248,69.5C 252.261,69.0778 256.761,68.4111 261.5,67.5C 261.709,66.914 262.043,66.414 262.5,66C 260.608,65.0266 258.608,64.3599 256.5,64C 257.745,63.2086 259.078,62.7086 260.5,62.5C 265.181,62.6686 269.848,63.0019 274.5,63.5C 274.5,54.5 274.5,45.5 274.5,36.5C 272.379,36.6747 270.379,36.3414 268.5,35.5C 270.995,33.2857 273.995,32.1191 277.5,32C 276.056,30.9363 274.389,30.4363 272.5,30.5C 268.736,32.2675 264.902,32.6009 261,31.5C 259.174,30.9896 259.007,30.1562 260.5,29C 255.986,28.6275 251.653,29.1275 247.5,30.5C 246.353,30.1822 245.519,29.5156 245,28.5C 244.374,30.9913 243.541,30.9913 242.5,28.5C 242.167,29.1667 241.833,29.8333 241.5,30.5C 240.5,29.8333 239.5,29.1667 238.5,28.5C 236.833,29.8333 235.167,29.8333 233.5,28.5C 232.702,28.9569 232.369,29.6236 232.5,30.5C 227.883,29.5127 223.216,28.846 218.5,28.5C 218.737,29.791 218.404,30.791 217.5,31.5C 216.991,27.8837 215.657,27.217 213.5,29.5C 212.52,26.9135 212.187,24.2469 212.5,21.5C 219.167,21.5 225.833,21.5 232.5,21.5C 232.5,18.8333 232.5,16.1667 232.5,13.5C 236.5,13.5 240.5,13.5 244.5,13.5C 244.5,16.1667 244.5,18.8333 244.5,21.5C 245.833,21.5 247.167,21.5 248.5,21.5C 248.5,18.8333 248.5,16.1667 248.5,13.5C 253.833,13.5 259.167,13.5 264.5,13.5C 264.5,12.1667 264.5,10.8333 264.5,9.5C 267.167,9.5 269.833,9.5 272.5,9.5C 272.5,13.5 272.5,17.5 272.5,21.5C 269.833,21.5 267.167,21.5 264.5,21.5C 264.5,20.1667 264.5,18.8333 264.5,17.5C 261.833,17.5 259.167,17.5 256.5,17.5C 256.5,20.1667 256.5,22.8333 256.5,25.5C 258.5,25.5 260.5,25.5 262.5,25.5C 262.5,26.8333 262.5,28.1667 262.5,29.5C 268.555,28.9557 274.555,28.9557 280.5,29.5C 280.768,32.1194 280.435,34.6194 279.5,37C 280.449,37.6172 281.282,37.4506 282,36.5C 282.995,37.0659 283.828,37.7326 284.5,38.5 Z"/></g>
<g><path style="opacity:1" fill="#34d5db" d="M 273.5,71.5 C 273.5,80.8333 273.5,90.1667 273.5,99.5C 265.167,99.5 256.833,99.5 248.5,99.5C 248.379,91.1422 248.712,82.8088 249.5,74.5C 249.5,73.1667 249.5,71.8333 249.5,70.5C 257.479,71.2242 265.479,71.5575 273.5,71.5 Z"/></g>
<g><path style="opacity:1" fill="#33d7de" d="M 316.5,74.5 C 320.833,74.5 325.167,74.5 329.5,74.5C 329.5,82.1667 329.5,89.8333 329.5,97.5C 323.167,97.5 316.833,97.5 310.5,97.5C 310.5,92.1667 310.5,86.8333 310.5,81.5C 310.5,79.1667 310.5,76.8333 310.5,74.5C 312.5,74.5 314.5,74.5 316.5,74.5 Z"/></g>
<g><path style="opacity:1" fill="#1e5e64" d="M 312.5,73.5 C 314.099,73.2322 315.432,73.5655 316.5,74.5C 314.5,74.5 312.5,74.5 310.5,74.5C 310.5,76.8333 310.5,79.1667 310.5,81.5C 309.566,80.4324 309.232,79.099 309.5,77.5C 309.5,76.1667 309.5,74.8333 309.5,73.5C 310.5,73.5 311.5,73.5 312.5,73.5 Z"/></g>
<g><path style="opacity:1" fill="#33d5dc" d="M 289.5,106.5 C 293.833,106.5 298.167,106.5 302.5,106.5C 302.5,114.833 302.5,123.167 302.5,131.5C 295.139,131.885 287.806,132.552 280.5,133.5C 280.5,124.833 280.5,116.167 280.5,107.5C 283.713,107.81 286.713,107.477 289.5,106.5 Z"/></g>
<g><path style="opacity:1" fill="#35d8df" d="M 316.5,105.5 C 316.833,105.5 317.167,105.5 317.5,105.5C 321.5,105.5 325.5,105.5 329.5,105.5C 329.5,113.167 329.5,120.833 329.5,128.5C 323.137,128.906 316.803,129.573 310.5,130.5C 310.5,122.5 310.5,114.5 310.5,106.5C 312.735,106.795 314.735,106.461 316.5,105.5 Z"/></g>
<g><path style="opacity:1" fill="#32d7de" d="M 155.5,91.5 C 155.675,93.6208 155.341,95.6208 154.5,97.5C 134.199,108.65 114.199,120.317 94.5,132.5C 114.586,143.96 134.752,155.293 155,166.5C 155.167,171 155.333,175.5 155.5,180C 155.493,184.886 154.826,189.386 153.5,193.5C 149.653,190.407 145.32,188.074 140.5,186.5C 119.678,174.038 98.3449,162.372 76.5,151.5C 72.8915,148.689 68.8915,146.355 64.5,144.5C 63.1667,136.833 63.1667,129.167 64.5,121.5C 82.03,110.903 99.6967,100.569 117.5,90.5C 130.055,83.3043 142.555,75.971 155,68.5C 155.5,76.1594 155.666,83.8261 155.5,91.5 Z"/></g>
<g><path style="opacity:1" fill="#35d8e0" d="M 322.5,136.5 C 324.833,136.5 327.167,136.5 329.5,136.5C 329.831,144.196 329.497,151.862 328.5,159.5C 322.225,160.824 315.891,161.824 309.5,162.5C 309.5,154.5 309.5,146.5 309.5,138.5C 314.028,138.23 318.361,137.563 322.5,136.5 Z"/></g>
<g><path style="opacity:1" fill="#0c0f19" d="M 193.5,113.5 C 182.125,151.687 170.458,189.687 158.5,227.5C 157.175,228.953 156.342,228.619 156,226.5C 155.667,223.5 155.333,220.5 155,217.5C 154.51,218.793 154.343,220.127 154.5,221.5C 153.167,221.5 151.833,221.5 150.5,221.5C 150.5,222.833 150.5,224.167 150.5,225.5C 147.833,225.5 145.167,225.5 142.5,225.5C 142.5,224.167 142.5,222.833 142.5,221.5C 144.167,221.5 145.833,221.5 147.5,221.5C 147.5,220.167 147.5,218.833 147.5,217.5C 145.833,217.5 144.167,217.5 142.5,217.5C 140.936,213.279 140.27,209.112 140.5,205C 144.403,204.248 145.403,202.081 143.5,198.5C 146.737,196.478 150.071,194.812 153.5,193.5C 154.826,189.386 155.493,184.886 155.5,180C 155.333,175.5 155.167,171 155,166.5C 134.752,155.293 114.586,143.96 94.5,132.5C 114.199,120.317 134.199,108.65 154.5,97.5C 154.539,98.5832 154.873,99.5832 155.5,100.5C 158.428,101.484 161.428,101.817 164.5,101.5C 164.5,98.8333 164.5,96.1667 164.5,93.5C 165.833,93.5 167.167,93.5 168.5,93.5C 168.5,98.8333 168.5,104.167 168.5,109.5C 176.174,109.334 183.841,109.5 191.5,110C 191.833,110.333 192.167,110.667 192.5,111C 189.949,112.516 190.282,113.349 193.5,113.5 Z"/></g>
<g><path style="opacity:1" fill="#32d5dc" d="M 271.5,160.5 C 271.5,163.833 271.5,167.167 271.5,170.5C 262.856,171.997 254.189,173.33 245.5,174.5C 245.434,165.148 245.768,155.815 246.5,146.5C 254.825,145.427 263.158,144.427 271.5,143.5C 271.5,149.167 271.5,154.833 271.5,160.5 Z"/></g>
<g><path style="opacity:1" fill="#32d7de" d="M 232.5,30.5 C 235.167,30.8333 237.833,31.1667 240.5,31.5C 224.878,85.3813 209.211,139.381 193.5,193.5C 189.298,206.105 185.298,218.772 181.5,231.5C 173.833,231.5 166.167,231.5 158.5,231.5C 158.5,230.167 158.5,228.833 158.5,227.5C 170.458,189.687 182.125,151.687 193.5,113.5C 201.728,86.1589 209.728,58.8256 217.5,31.5C 218.404,30.791 218.737,29.791 218.5,28.5C 223.216,28.846 227.883,29.5127 232.5,30.5 Z"/></g>
<g><path style="opacity:1" fill="#37d9df" d="M 329.5,185.5 C 329.5,187.5 329.5,189.5 329.5,191.5C 323.264,193.244 316.931,194.577 310.5,195.5C 309.508,188.018 309.175,180.352 309.5,172.5C 315.855,170.619 322.355,168.952 329,167.5C 329.499,173.491 329.666,179.491 329.5,185.5 Z"/></g>
<g><path style="opacity:1" fill="#0c1119" d="M 76.5,151.5 C 98.3449,162.372 119.678,174.038 140.5,186.5C 140.539,187.756 140.039,188.756 139,189.5C 138.333,188.167 137.667,186.833 137,185.5C 136.391,190.861 136.558,196.195 137.5,201.5C 133.167,201.5 128.833,201.5 124.5,201.5C 124.5,202.833 124.5,204.167 124.5,205.5C 120.5,205.5 116.5,205.5 112.5,205.5C 112.5,200.167 112.5,194.833 112.5,189.5C 115.167,189.5 117.833,189.5 120.5,189.5C 120.5,186.833 120.5,184.167 120.5,181.5C 117.728,182.371 115.062,182.371 112.5,181.5C 112.5,182.833 112.5,184.167 112.5,185.5C 109.833,185.5 107.167,185.5 104.5,185.5C 104.5,184.167 104.5,182.833 104.5,181.5C 103.167,181.5 101.833,181.5 100.5,181.5C 100.5,178.833 100.5,176.167 100.5,173.5C 91.1667,173.5 81.8333,173.5 72.5,173.5C 72.3338,167.158 72.5005,160.825 73,154.5C 73.985,153.186 75.1516,152.186 76.5,151.5 Z"/></g>
<g><path style="opacity:1" fill="#34d6dc" d="M 297.5,173.5 C 298.833,173.5 300.167,173.5 301.5,173.5C 301.826,182.017 301.493,190.35 300.5,198.5C 295.892,200.036 291.225,201.369 286.5,202.5C 283.888,203.371 281.221,204.037 278.5,204.5C 278.5,198.833 278.5,193.167 278.5,187.5C 278.216,184.223 278.549,181.057 279.5,178C 285.756,177.023 291.756,175.523 297.5,173.5 Z"/></g>
<g><path style="opacity:1" fill="#38969d" d="M 268.5,180.5 C 268.56,179.957 268.893,179.624 269.5,179.5C 270.493,184.12 270.827,188.786 270.5,193.5C 270.167,193.5 269.833,193.5 269.5,193.5C 269.818,188.968 269.485,184.634 268.5,180.5 Z"/></g>
<g><path style="opacity:1" fill="#33d7df" d="M 268.5,180.5 C 269.485,184.634 269.818,188.968 269.5,193.5C 269.5,198.167 269.5,202.833 269.5,207.5C 260.87,209.626 252.203,211.626 243.5,213.5C 243.434,204.148 243.768,194.815 244.5,185.5C 252.392,183.428 260.392,181.761 268.5,180.5 Z"/></g>
<g><path style="opacity:1" fill="#31757f" d="M 309.5,172.5 C 309.175,180.352 309.508,188.018 310.5,195.5C 310.44,196.043 310.107,196.376 309.5,196.5C 308.505,190.872 308.171,185.206 308.5,179.5C 308.198,176.941 308.532,174.607 309.5,172.5 Z"/></g>
<g><path style="opacity:1" fill="#31d7de" d="M 230.5,217.5 C 221.585,220.025 212.585,222.358 203.5,224.5C 204.278,214.168 205.111,203.835 206,193.5C 206.671,192.748 207.504,192.414 208.5,192.5C 217.118,190.619 225.784,188.952 234.5,187.5C 234.758,197.539 234.424,207.539 233.5,217.5C 232.5,217.5 231.5,217.5 230.5,217.5 Z"/></g>
<g><path style="opacity:1" fill="#0b1119" d="M 244.5,185.5 C 243.768,194.815 243.434,204.148 243.5,213.5C 252.203,211.626 260.87,209.626 269.5,207.5C 269.5,202.833 269.5,198.167 269.5,193.5C 269.833,193.5 270.167,193.5 270.5,193.5C 270.351,194.552 270.517,195.552 271,196.5C 271.333,195.167 271.667,193.833 272,192.5C 272.621,196.817 272.121,200.984 270.5,205C 271,205.5 271.5,206 272,206.5C 272.333,204.833 272.667,203.167 273,201.5C 273.219,202.938 273.719,204.271 274.5,205.5C 275.53,203.483 276.53,201.483 277.5,199.5C 276.59,195.213 276.257,191.046 276.5,187C 276.667,186.5 276.833,186 277,185.5C 277.278,186.416 277.778,187.082 278.5,187.5C 278.5,193.167 278.5,198.833 278.5,204.5C 281.221,204.037 283.888,203.371 286.5,202.5C 286.611,203.117 286.944,203.617 287.5,204C 285.956,204.29 284.623,204.956 283.5,206C 287.71,207.836 291.71,207.669 295.5,205.5C 298.449,209.548 298.115,213.214 294.5,216.5C 298.654,219.673 300.988,218.673 301.5,213.5C 302.5,213.5 303.5,213.5 304.5,213.5C 304.5,216.167 304.5,218.833 304.5,221.5C 301.212,221.927 298.212,221.26 295.5,219.5C 293.477,221.173 291.144,221.84 288.5,221.5C 288.5,224.167 288.5,226.833 288.5,229.5C 285.833,229.5 283.167,229.5 280.5,229.5C 280.5,226.833 280.5,224.167 280.5,221.5C 282.5,221.5 284.5,221.5 286.5,221.5C 286.5,220.167 286.5,218.833 286.5,217.5C 288.167,217.5 289.833,217.5 291.5,217.5C 291.5,216.167 291.5,214.833 291.5,213.5C 287.833,213.5 284.167,213.5 280.5,213.5C 280.5,214.833 280.5,216.167 280.5,217.5C 278.167,217.5 275.833,217.5 273.5,217.5C 274.342,214.846 274.842,212.179 275,209.5C 273.064,211.808 272.231,214.475 272.5,217.5C 271.127,217.343 269.793,217.51 268.5,218C 269.458,219.147 269.125,220.147 267.5,221C 266.552,221.483 265.552,221.649 264.5,221.5C 264.5,224.167 264.5,226.833 264.5,229.5C 267.167,229.5 269.833,229.5 272.5,229.5C 272.5,233.5 272.5,237.5 272.5,241.5C 269.833,241.5 267.167,241.5 264.5,241.5C 264.5,240.167 264.5,238.833 264.5,237.5C 256.5,237.5 248.5,237.5 240.5,237.5C 240.5,240.167 240.5,242.833 240.5,245.5C 236.5,245.5 232.5,245.5 228.5,245.5C 228.5,244.167 228.5,242.833 228.5,241.5C 227.167,241.5 225.833,241.5 224.5,241.5C 224.5,240.167 224.5,238.833 224.5,237.5C 220.5,237.5 216.5,237.5 212.5,237.5C 212.5,238.833 212.5,240.167 212.5,241.5C 209.833,241.5 207.167,241.5 204.5,241.5C 204.5,242.833 204.5,244.167 204.5,245.5C 197.833,245.5 191.167,245.5 184.5,245.5C 184.335,241.818 184.501,238.152 185,234.5C 185.5,234 186,233.5 186.5,233C 185.02,230.332 183.52,230.165 182,232.5C 181.601,232.272 181.435,231.938 181.5,231.5C 185.298,218.772 189.298,206.105 193.5,193.5C 194.043,193.56 194.376,193.893 194.5,194.5C 191.508,199.073 191.175,203.74 193.5,208.5C 197.275,208.964 199.775,210.964 201,214.5C 201.333,212.833 201.667,211.167 202,209.5C 202.887,214.727 203.387,214.56 203.5,209C 203.01,206.253 202.344,203.92 201.5,202C 203.513,198.469 204.847,194.635 205.5,190.5C 206.739,190.942 207.739,191.609 208.5,192.5C 207.504,192.414 206.671,192.748 206,193.5C 205.111,203.835 204.278,214.168 203.5,224.5C 212.585,222.358 221.585,220.025 230.5,217.5C 231.252,219.1 232.252,220.6 233.5,222C 236.5,222.667 239.5,222.667 242.5,222C 242.738,220.022 244.071,218.355 246.5,217C 242.882,214.894 240.715,216.061 240,220.5C 239.639,217.475 239.139,214.475 238.5,211.5C 238.833,210.833 239.167,210.167 239.5,209.5C 239.296,210.529 239.796,211.529 241,212.5C 241.273,210.899 241.773,209.399 242.5,208C 241.57,206.806 240.903,205.473 240.5,204C 241.517,201.213 241.684,198.38 241,195.5C 240.016,197.795 239.183,197.461 238.5,194.5C 238.938,193.494 239.604,193.494 240.5,194.5C 241.314,192.234 241.814,189.9 242,187.5C 242.708,186.619 243.542,185.953 244.5,185.5 Z"/></g>
<g><path style="opacity:1" fill="#eceff3" d="M -0.5,-0.5 C -0.166667,-0.5 0.166667,-0.5 0.5,-0.5C 0.5,85.5 0.5,171.5 0.5,257.5C 130.833,257.5 261.167,257.5 391.5,257.5C 391.5,257.833 391.5,258.167 391.5,258.5C 260.833,258.5 130.167,258.5 -0.5,258.5C -0.5,172.167 -0.5,85.8333 -0.5,-0.5 Z"/></g>
</svg>
